# File created by Blade
# Date/Time:  Thu Sep 25 19:32:06 2014
# Frame Rate: 120.000 fps
#------------------------------------------------------
:FULLY-SPECIFIED
:DEGREES
1631
root -0.005134 33.396194 -0.173590 12.469372 16.737744 6.335198
Spine -5.729783 6.337674 -1.242666
Head -21.681362 -18.775514 0.118308
LeftShoulder -9.899211 14.027040 22.472567
LeftArm 17.580330 -22.761495 -33.127247
LeftForeArm -0.182569 0.000000 15.418605
LeftHand -18.926016 0.000000 -6.588342
LeftHandThumb1 -26.253704 0.000000 33.147579
RightShoulder -15.493010 8.185274 -26.450886
RightArm -21.836008 -20.222045 77.253110
RightForeArm -11.579602 -0.000000 20.009443
RightHand -7.150122 -0.000000 7.455512
RightHandThumb1 -24.326973 -0.000000 -32.862282
LeftUpLeg -7.766774 2.089466 2.335857
LeftLeg 14.355633 -0.000000 -0.000000
LeftFoot -21.066402 4.111730 -24.673169
LeftToeBase 1.604588 -0.000000 -0.000000
RightUpLeg -9.771365 -12.533231 0.358701
RightLeg 8.051313 -0.000000 -0.000000
RightFoot -8.907674 -11.731113 -3.978684
RightToeBase -2.872758 -0.000000 0.000000
1632
root 0.073804 33.406008 -0.183259 12.502327 16.555993 6.304343
Spine -5.655256 6.361492 -1.285003
Head -21.803656 -18.594065 0.126541
LeftShoulder -9.970103 14.078413 22.399237
LeftArm 17.484794 -22.493603 -33.154698
LeftForeArm -0.093448 0.000000 15.527430
LeftHand -19.112307 -0.000000 -6.296724
LeftHandThumb1 -26.253704 0.000000 33.147579
RightShoulder -15.429438 8.203782 -26.559197
RightArm -21.649655 -19.998316 76.686994
RightForeArm -11.442440 -0.000000 19.778601
RightHand -7.215638 -0.000000 7.101263
RightHandThumb1 -24.326973 -0.000000 -32.862282
LeftUpLeg -8.051392 1.839918 2.294239
LeftLeg 13.190597 -0.000000 -0.000000
LeftFoot -20.514626 3.325610 -24.613769
LeftToeBase 1.906340 -0.000000 -0.000000
RightUpLeg -9.657589 -12.749311 0.263765
RightLeg 7.687970 -0.000000 -0.000000
RightFoot -8.640431 -11.352512 -4.108488
RightToeBase -3.440359 -0.000000 0.000000
1633
root 0.156870 33.414102 -0.195726 12.546734 16.353541 6.270093
Spine -5.609236 6.470244 -1.317249
Head -21.879222 -18.437012 0.075627
LeftShoulder -9.975125 14.180693 22.344450
LeftArm 17.501431 -22.499982 -33.344733
LeftForeArm 0.151020 -0.000000 15.586961
LeftHand -19.303618 -0.000000 -6.048834
LeftHandThumb1 -26.253704 0.000000 33.147579
RightShoulder -15.432639 8.244158 -26.674460
RightArm -21.530472 -19.831280 76.130718
RightForeArm -11.382428 -0.000000 19.596808
RightHand -7.285455 0.000000 6.865614
RightHandThumb1 -24.326973 -0.000000 -32.862282
LeftUpLeg -8.340902 1.572407 2.228813
LeftLeg 12.114204 -0.000000 -0.000000
LeftFoot -19.908852 2.368837 -25.027587
LeftToeBase 1.415502 -0.000000 -0.000000
RightUpLeg -9.497891 -12.764301 0.133404
RightLeg 7.221025 -0.000000 -0.000000
RightFoot -8.456565 -11.086785 -4.034138
RightToeBase -3.245170 -0.000000 0.000000
1634
root 0.232377 33.418973 -0.203707 12.537962 16.140007 6.129771
Spine -5.565293 6.561119 -1.223841
Head -21.880017 -18.265025 -0.040841
LeftShoulder -10.027548 14.297940 22.278757
LeftArm 17.529111 -22.393251 -33.511090
LeftForeArm 0.472819 -0.000000 15.600849
LeftHand -19.283009 -0.000000 -5.683290
LeftHandThumb1 -26.253704 0.000000 33.147579
RightShoulder -15.376494 8.257814 -26.810286
RightArm -21.350678 -19.613268 75.603971
RightForeArm -11.361226 -0.000000 19.377141
RightHand -7.340000 -0.000000 6.712371
RightHandThumb1 -24.326973 -0.000000 -32.862282
LeftUpLeg -8.686919 1.726635 2.225423
LeftLeg 11.295187 -0.000000 -0.000000
LeftFoot -19.130485 0.943199 -25.562990
LeftToeBase 1.456003 -0.000000 -0.000000
RightUpLeg -9.205301 -12.485608 0.069729
RightLeg 6.574924 -0.000000 -0.000000
RightFoot -8.158877 -11.055838 -4.010920
RightToeBase -2.936228 -0.000000 0.000000
1635
root 0.312654 33.420875 -0.204956 12.491993 15.912837 5.966613
Spine -5.519536 6.647414 -1.092517
Head -21.767412 -18.089416 -0.228878
LeftShoulder -10.074793 14.450650 22.167250
LeftArm 17.576030 -22.411439 -33.653181
LeftForeArm 0.780959 -0.000000 15.613653
LeftHand -19.562362 0.000000 -5.268744
LeftHandThumb1 -26.253704 0.000000 33.147579
RightShoulder -15.345517 8.279743 -26.952632
RightArm -21.179647 -19.365579 75.061320
RightForeArm -11.528998 -0.000000 19.231038
RightHand -7.485671 -0.000000 6.640086
RightHandThumb1 -24.326973 -0.000000 -32.862282
LeftUpLeg -8.838720 1.426717 2.246135
LeftLeg 10.308467 -0.000000 -0.000000
LeftFoot -18.317074 -0.145419 -26.079631
LeftToeBase 1.693992 -0.000000 -0.000000
RightUpLeg -8.884950 -12.343304 0.024398
RightLeg 5.961796 -0.000000 -0.000000
RightFoot -7.900844 -10.841367 -3.944653
RightToeBase -2.990670 -0.000000 0.000000
1636
root 0.399557 33.417816 -0.204330 12.417149 15.680659 5.818342
Spine -5.455479 6.710411 -0.967913
Head -21.644182 -17.914020 -0.369916
LeftShoulder -10.111289 14.597915 22.149721
LeftArm 17.614093 -22.373023 -33.870959
LeftForeArm 1.214255 0.000000 15.578638
LeftHand -19.764870 0.000000 -5.072265
LeftHandThumb1 -26.253704 0.000000 33.147579
RightShoulder -15.325520 8.326902 -27.102145
RightArm -21.024795 -19.158261 74.535891
RightForeArm -11.707916 -0.000000 19.119409
RightHand -7.445346 0.000000 6.663238
RightHandThumb1 -24.326973 -0.000000 -32.862282
LeftUpLeg -8.957489 1.185730 2.218799
LeftLeg 9.449954 -0.000000 -0.000000
LeftFoot -17.362011 -1.313525 -26.601517
LeftToeBase 1.746498 -0.000000 -0.000000
RightUpLeg -8.550000 -12.257630 -0.034947
RightLeg 5.372912 -0.000000 -0.000000
RightFoot -7.712995 -10.655850 -3.855545
RightToeBase -2.967853 -0.000000 0.000000
1637
root 0.481520 33.410765 -0.198884 12.277870 15.413865 5.570795
Spine -5.375963 6.866060 -0.730352
Head -21.438821 -17.752733 -0.542223
LeftShoulder -10.055047 14.740762 22.125544
LeftArm 17.551314 -22.420032 -34.094862
LeftForeArm 1.662266 -0.000000 15.686534
LeftHand -19.936102 -0.000000 -4.680441
LeftHandThumb1 -26.253704 0.000000 33.147579
RightShoulder -15.355154 8.282965 -27.257655
RightArm -20.776368 -18.932202 73.994246
RightForeArm -11.824969 -0.000000 19.033106
RightHand -7.663383 -0.000000 6.643877
RightHandThumb1 -24.326973 -0.000000 -32.862282
LeftUpLeg -9.052459 1.239597 2.253494
LeftLeg 8.741335 -0.000000 -0.000000
LeftFoot -16.109763 -2.803442 -27.087648
LeftToeBase 1.892301 -0.000000 -0.000000
RightUpLeg -8.225790 -12.257949 0.003533
RightLeg 4.896714 -0.000000 -0.000000
RightFoot -7.574429 -10.311394 -3.743681
RightToeBase -2.944931 -0.000000 0.000000
1638
root 0.559120 33.397458 -0.193232 12.125143 15.172275 5.250887
Spine -5.315725 6.913081 -0.386144
Head -21.195588 -17.510021 -0.793103
LeftShoulder -10.098886 14.925360 22.088872
LeftArm 17.565410 -22.157074 -34.229627
LeftForeArm 1.775189 0.000000 15.616425
LeftHand -20.250305 -0.000000 -4.035988
LeftHandThumb1 -26.253704 0.000000 33.147579
RightShoulder -15.351059 8.337005 -27.464671
RightArm -20.558208 -18.584211 73.445167
RightForeArm -12.170504 -0.000000 18.943269
RightHand -7.634979 -0.000000 6.604887
RightHandThumb1 -24.326973 -0.000000 -32.862282
LeftUpLeg -9.154691 1.297096 2.360656
LeftLeg 8.154657 -0.000000 -0.000000
LeftFoot -14.708133 -4.234533 -27.765955
LeftToeBase 1.535459 -0.000000 -0.000000
RightUpLeg -7.757269 -11.925217 0.087762
RightLeg 4.127617 -0.000000 -0.000000
RightFoot -7.325912 -10.290315 -3.505949
RightToeBase -2.538485 -0.000000 0.000000
1639
root 0.645160 33.379026 -0.180876 11.923875 14.895293 4.923710
Spine -5.228677 6.979075 -0.018275
Head -20.901195 -17.267460 -1.016604
LeftShoulder -10.132461 15.083697 22.037919
LeftArm 17.493090 -21.959684 -34.320355
LeftForeArm 2.137017 -0.000000 15.632155
LeftHand -20.504344 -0.000000 -3.806094
LeftHandThumb1 -26.253704 0.000000 33.147579
RightShoulder -15.385509 8.403413 -27.689943
RightArm -20.311729 -18.124828 72.837120
RightForeArm -12.656732 0.000000 18.855769
RightHand -7.595638 0.000000 6.690033
RightHandThumb1 -24.326973 -0.000000 -32.862282
LeftUpLeg -9.144331 1.350557 2.454717
LeftLeg 7.541861 -0.000000 -0.000000
LeftFoot -13.025801 -5.820151 -28.908333
LeftToeBase 1.511554 -0.000000 -0.000000
RightUpLeg -7.347757 -11.851331 0.187628
RightLeg 3.599389 -0.000000 -0.000000
RightFoot -7.160674 -10.084367 -3.543216
RightToeBase -2.751017 -0.000000 0.000000
1640
root 0.719739 33.354378 -0.164231 11.700882 14.625212 4.487757
Spine -5.171691 7.064954 0.441552
Head -20.553782 -16.999573 -1.175065
LeftShoulder -10.183527 15.181644 22.081039
LeftArm 17.479047 -21.712240 -34.511181
LeftForeArm 2.535136 -0.000000 15.577980
LeftHand -20.736026 -0.000000 -3.509787
LeftHandThumb1 -26.253704 0.000000 33.147579
RightShoulder -15.505153 8.469504 -27.903013
RightArm -20.032444 -17.665588 72.172400
RightForeArm -13.250486 -0.000000 18.808058
RightHand -7.510594 0.000000 6.886552
RightHandThumb1 -24.326973 -0.000000 -32.862282
LeftUpLeg -9.148520 1.519329 2.648198
LeftLeg 7.089300 -0.000000 -0.000000
LeftFoot -11.205955 -7.270623 -30.271901
LeftToeBase 1.786720 -0.000000 -0.000000
RightUpLeg -6.867716 -11.581826 0.385492
RightLeg 2.937451 -0.000000 -0.000000
RightFoot -7.049402 -9.925852 -3.280400
RightToeBase -2.488026 -0.000000 0.000000
1641
root 0.793476 33.324762 -0.149130 11.448892 14.348698 3.983442
Spine -5.109770 7.113543 1.007298
Head -20.116024 -16.683267 -1.421363
LeftShoulder -10.253111 15.421231 22.065061
LeftArm 17.548072 -21.578753 -34.703349
LeftForeArm 3.134259 -0.000000 15.499835
LeftHand -21.073822 -0.000000 -3.204115
LeftHandThumb1 -26.253704 0.000000 33.147579
RightShoulder -15.602913 8.578617 -28.143757
RightArm -19.736276 -17.099471 71.466212
RightForeArm -14.040358 -0.000000 18.779350
RightHand -7.515708 -0.000000 6.975645
RightHandThumb1 -24.326973 -0.000000 -32.862282
LeftUpLeg -9.077649 1.613524 2.910140
LeftLeg 6.585694 -0.000000 -0.000000
LeftFoot -9.045292 -8.541482 -31.446201
LeftToeBase 1.500252 -0.000000 -0.000000
RightUpLeg -6.416670 -11.324277 0.663642
RightLeg 2.351675 -0.000000 -0.000000
RightFoot -6.908930 -9.830339 -3.187608
RightToeBase -2.299209 -0.000000 0.000000
1642
root 0.876619 33.288324 -0.123623 11.149305 14.103451 3.494253
Spine -5.043966 7.146579 1.559492
Head -19.642041 -16.402471 -1.545106
LeftShoulder -10.299397 15.568650 22.134444
LeftArm 17.562711 -21.221688 -34.853851
LeftForeArm 3.506807 -0.000000 15.360683
LeftHand -21.221500 -0.000000 -2.821562
LeftHandThumb1 -26.253704 0.000000 33.147579
RightShoulder -15.756984 8.734618 -28.379061
RightArm -19.472845 -16.379522 70.650248
RightForeArm -15.019828 -0.000000 18.765103
RightHand -7.516630 -0.000000 7.335674
RightHandThumb1 -24.326973 -0.000000 -32.862282
LeftUpLeg -8.921544 1.733920 3.149433
LeftLeg 6.138875 -0.000000 -0.000000
LeftFoot -6.737935 -9.773646 -32.854834
LeftToeBase 1.994327 -0.000000 -0.000000
RightUpLeg -5.849729 -11.102408 0.902655
RightLeg 1.694513 -0.000000 -0.000000
RightFoot -6.802363 -9.672330 -2.971778
RightToeBase -2.259651 -0.000000 0.000000
